<svg width="179.000000" height="25.000000" viewBox="0 0 179 25" fill="none" xmlns="http://www.w3.org/2000/svg" xmlns:xlink="http://www.w3.org/1999/xlink">
	<desc>
			Created with Pixso.
	</desc>
	<defs/>
	<path d="M81.67 19.33Q81.67 18.19 82.22 16.13C82.58 14.75 83.1 13.13 83.75 11.3Q85.37 6.9 86.77 3.99C87.72 2.03 88.65 0.51 89.55 -0.59C89.76 -0.55 90.01 -0.46 90.31 -0.33C90.62 -0.19 90.92 -0.03 91.22 0.14C91.51 0.3 91.77 0.46 92 0.64C92.24 0.81 92.39 0.95 92.46 1.05C91.11 2.65 89.92 4.36 88.9 6.2C87.88 8.04 86.94 10.14 86.09 12.52C85.37 14.56 84.81 16.41 84.43 18.06Q83.86 20.5 83.86 22.14L83.86 22.69C83.86 22.75 83.87 22.82 83.88 22.89C83.64 22.86 83.43 22.8 83.26 22.71C83.09 22.62 82.97 22.52 82.92 22.4C82.89 22.31 82.79 22.18 82.64 22.01C82.48 21.85 82.34 21.73 82.22 21.65C82.06 21.54 81.93 21.27 81.83 20.84C81.73 20.39 81.67 19.89 81.67 19.33ZM168 19.33C168 18.57 168.18 17.5 168.55 16.13C168.91 14.75 169.42 13.13 170.08 11.3C171.16 8.37 172.16 5.93 173.1 3.99C174.05 2.03 174.98 0.51 175.88 -0.59C176.09 -0.55 176.34 -0.46 176.63 -0.33Q176.82 -0.24 177 -0.15L177.01 -0.15L177.01 -0.15Q177.28 -0.01 177.54 0.14C177.84 0.3 178.1 0.46 178.32 0.64C178.57 0.81 178.72 0.95 178.79 1.05C177.44 2.65 176.25 4.36 175.23 6.2C174.21 8.04 173.27 10.14 172.42 12.52C171.69 14.56 171.14 16.41 170.76 18.06C170.38 19.69 170.19 21.05 170.19 22.14L170.19 22.69C170.19 22.75 170.2 22.82 170.21 22.89C169.97 22.86 169.76 22.8 169.59 22.71C169.42 22.62 169.3 22.52 169.25 22.4C169.22 22.31 169.12 22.18 168.96 22.01C168.81 21.85 168.67 21.73 168.55 21.65C168.39 21.54 168.26 21.27 168.16 20.84C168.05 20.39 168 19.89 168 19.33ZM103.89 1.78C104.55 1.78 105.24 1.9 105.95 2.14Q107.01 2.51 107.82 3.08C107.65 3.96 107.48 4.76 107.33 5.47C107.19 6.18 107.06 6.83 106.94 7.42C106.82 7.99 106.69 8.52 106.57 9.01C106.47 9.48 106.36 9.92 106.26 10.34Q105.64 12.68 104.96 14.57C104.53 15.82 104.06 16.95 103.56 17.95C103.07 18.96 102.55 19.85 102 20.63C101.46 21.41 100.88 22.1 100.25 22.69C99.65 23.26 99.04 23.73 98.43 24.09C97.83 24.45 97.26 24.69 96.74 24.79C96.05 24.79 95.41 24.71 94.82 24.56C94.23 24.4 93.72 24.18 93.29 23.91C92.87 23.65 92.54 23.33 92.3 22.95C92.07 22.58 91.96 22.17 91.96 21.72C91.96 21.24 92.08 20.63 92.32 19.9C92.57 19.16 92.94 18.28 93.44 17.28C93.65 17.29 93.89 17.35 94.17 17.43C94.45 17.52 94.72 17.62 95 17.75C95.28 17.87 95.53 18.01 95.76 18.16C95.98 18.3 96.15 18.44 96.25 18.58C95.7 19.15 95.24 19.78 94.9 20.48C94.55 21.15 94.38 21.74 94.38 22.24C94.38 22.54 94.43 22.8 94.53 23.02C94.66 23.27 94.85 23.48 95.13 23.67Q96.72 23.08 98.23 21.44C99.23 20.36 100.12 19.02 100.9 17.41Q101.61 15.98 102.18 14.13C102.56 12.9 102.88 11.67 103.14 10.44Q103.56 8.57 103.76 6.88C103.92 5.73 104 4.77 104 3.99Q104 3.81 103.97 3.5Q103.97 3.16 103.95 2.82Q103.95 2.46 103.92 2.17C103.9 1.98 103.89 1.85 103.89 1.78ZM15.95 6.98C15.95 7.93 15.71 8.84 15.22 9.71C14.75 10.58 14.11 11.34 13.3 12Q12.1 12.96 10.46 13.53C9.39 13.91 8.24 14.11 7.03 14.11Q6.38 14.11 5.99 13.95C5.75 13.83 5.47 13.6 5.16 13.27Q3.86 16.11 3.03 18.5Q2.22 20.87 1.75 23.1C1.09 22.95 0.56 22.67 0.14 22.27Q-0.48 21.7 -1 20.81C-0.83 20.48 -0.62 20.05 -0.38 19.51C-0.14 18.98 0.16 18.32 0.51 17.54Q1.03 16.34 1.7 14.7Q2.4 13.04 3.34 10.83C3.62 10.15 3.86 9.56 4.07 9.06C4.28 8.56 4.46 8.09 4.61 7.66C4.77 7.21 4.91 6.76 5.03 6.33C5.17 5.9 5.31 5.42 5.45 4.9Q4.22 5.29 3.18 5.81Q2.17 6.33 1.49 6.9C1.34 6.8 1.17 6.64 1 6.43Q0.77 6.12 0.56 5.76C0.42 5.5 0.3 5.24 0.19 4.98C0.09 4.72 0.03 4.48 0.01 4.28Q0.77 3.76 1.88 3.31C2.63 3.02 3.43 2.77 4.28 2.56Q5.55 2.22 6.9 2.04Q8.28 1.86 9.53 1.86Q11.01 1.86 12.21 2.25Q13.4 2.61 14.23 3.29Q14.8 3.75 15.18 4.32L15.18 4.32Q15.36 4.6 15.51 4.9Q15.51 4.9 15.51 4.91Q15.95 5.84 15.95 6.98ZM11.32 3.86C10.66 3.86 9.99 3.91 9.29 4.02L9.61 4.48C9.43 4.71 9.22 5.05 8.96 5.5C8.7 5.95 8.41 6.5 8.1 7.14Q7.63 8.07 7.06 9.24C6.69 10.02 6.3 10.85 5.89 11.71C7.24 11.71 8.47 11.59 9.58 11.35C10.69 11.09 11.63 10.74 12.41 10.31C13.21 9.86 13.83 9.34 14.26 8.75Q14.75 8.11 14.88 7.41Q14.94 7.13 14.94 6.85C14.94 5.95 14.63 5.23 14.03 4.69C13.42 4.14 12.52 3.86 11.32 3.86ZM43.95 10.65C43.93 10.98 43.87 11.32 43.77 11.69C43.68 12.03 43.57 12.35 43.43 12.65C43.29 12.93 43.15 13.16 42.99 13.35C42.83 13.54 42.69 13.64 42.55 13.64C42.36 13.62 42.24 13.49 42.21 13.25C42.21 13.2 42.23 13.12 42.26 13.01C42.31 12.89 42.37 12.76 42.42 12.62C42.47 12.48 42.51 12.35 42.55 12.21C42.6 12.07 42.63 11.95 42.63 11.84C42.63 11.6 42.56 11.4 42.44 11.25C42.34 11.07 42.19 10.99 42 10.99C41.31 10.99 40.78 11.42 40.42 12.29C40.05 13.15 39.87 14.43 39.87 16.11Q39.87 16.37 39.9 16.42C40.26 16.4 40.58 16.39 40.86 16.39C41.15 16.38 41.44 16.37 41.72 16.37C41.73 16.4 41.74 16.47 41.74 16.58C41.74 16.73 41.71 16.84 41.64 16.91C41.24 17 40.92 17.08 40.68 17.15C40.45 17.2 40.28 17.25 40.16 17.3C40.03 17.36 39.96 17.42 39.92 17.49C39.9 17.54 39.9 17.62 39.9 17.72L39.9 18.14C39.91 18.27 39.92 18.45 39.92 18.66C39.92 20.11 39.52 21.28 38.73 22.17Q38.51 22.41 38.27 22.61L38.27 22.61Q37.17 23.53 35.45 23.7C35.21 23.68 34.96 23.61 34.7 23.49C34.44 23.37 34.18 23.21 33.94 23.02C33.72 22.83 33.52 22.62 33.34 22.37C33.17 22.15 33.05 21.91 32.98 21.67C32.98 21.01 33.12 20.39 33.4 19.8C33.67 19.19 34.05 18.66 34.51 18.21C35 17.75 35.56 17.37 36.2 17.1C36.86 16.8 37.57 16.63 38.34 16.58C38.34 16.14 38.29 15.72 38.21 15.3C38.12 14.89 38.02 14.49 37.92 14.11C37.83 13.71 37.75 13.33 37.66 12.96C37.57 12.58 37.53 12.21 37.53 11.84Q37.53 11.69 37.54 11.53Q37.59 10.99 37.82 10.47C38.01 10 38.26 9.57 38.57 9.19C38.88 8.79 39.25 8.45 39.66 8.18C40.08 7.9 40.51 7.71 40.96 7.6C41.15 7.66 41.4 7.81 41.72 8.07C42.04 8.32 42.37 8.59 42.68 8.9C42.99 9.22 43.27 9.54 43.51 9.87C43.75 10.18 43.9 10.44 43.95 10.65ZM59.66 8.38Q60.33 8.59 60.93 9.32C61.33 9.79 61.63 10.31 61.82 10.88C61.63 11.35 61.33 11.91 60.93 12.57Q60.33 13.56 59.74 14.6C59.34 15.28 58.97 15.93 58.64 16.55C58.33 17.16 58.15 17.66 58.1 18.06C58.38 17.76 58.68 17.42 59.01 17.04C59.35 16.64 59.68 16.25 60 15.87C60.33 15.47 60.63 15.12 60.91 14.81C61.18 14.48 61.4 14.24 61.56 14.08C61.89 13.73 62.28 13.33 62.73 12.88C63.18 12.42 63.64 11.98 64.13 11.58C64.63 11.17 65.14 10.82 65.64 10.54C66.14 10.25 66.6 10.1 67.02 10.1C67.47 10.1 67.84 10.26 68.13 10.57C68.45 10.86 68.69 11.18 68.86 11.51C68.86 11.54 68.79 11.59 68.65 11.66C68.53 11.71 68.35 11.88 68.11 12.16C67.87 12.47 67.59 12.9 67.28 13.46C66.98 13.99 66.69 14.58 66.39 15.22C66.11 15.85 65.88 16.49 65.69 17.15C65.5 17.81 65.4 18.4 65.4 18.94C65.4 19.37 65.46 19.65 65.56 19.77C65.68 19.89 65.85 19.95 66.05 19.95C66.24 19.95 66.44 19.91 66.65 19.83C66.86 19.74 67.02 19.7 67.15 19.7C67.22 19.73 67.27 19.81 67.3 19.93Q67.38 20.09 67.38 20.21C67.24 20.34 67.08 20.46 66.89 20.58Q66.6 20.76 66.29 20.92C66.08 21.02 65.87 21.11 65.66 21.18Q65.38 21.28 65.14 21.28C64.64 21.28 64.23 21.2 63.9 21.05C63.58 20.91 63.33 20.72 63.14 20.48C62.97 20.23 62.85 19.95 62.78 19.62C62.71 19.27 62.67 18.91 62.67 18.53C62.67 18.32 62.69 18.08 62.73 17.82C62.76 17.56 62.83 17.26 62.93 16.91C63.04 16.55 63.19 16.12 63.38 15.64C63.57 15.14 63.81 14.54 64.1 13.85C64.07 13.85 63.84 13.97 63.4 14.21C62.97 14.45 62.5 14.82 62 15.33C61.18 16.11 60.45 16.88 59.79 17.64C59.15 18.4 58.49 19.25 57.81 20.19C57.43 20.73 57.09 21.18 56.8 21.54C56.52 21.92 56.28 22.17 56.07 22.3C55.71 22.09 55.44 21.79 55.26 21.41C55.09 21.05 54.96 20.67 54.87 20.27C54.87 19.94 54.92 19.52 55 19.02C55.11 18.52 55.24 17.96 55.39 17.36Q55.65 16.42 56.02 15.41C56.26 14.73 56.53 14.05 56.82 13.38C57.48 11.85 58.08 10.66 58.62 9.79C59.17 8.92 59.52 8.45 59.66 8.38ZM145.99 8.38Q146.66 8.59 147.26 9.32C147.66 9.79 147.95 10.31 148.14 10.88C147.95 11.35 147.66 11.91 147.26 12.57Q146.66 13.56 146.06 14.6C145.67 15.28 145.3 15.93 144.97 16.55C144.66 17.16 144.48 17.66 144.43 18.06C144.7 17.76 145.01 17.42 145.34 17.04C145.68 16.64 146.01 16.25 146.32 15.87C146.65 15.47 146.96 15.12 147.23 14.81C147.51 14.48 147.73 14.24 147.88 14.08C148.21 13.73 148.6 13.33 149.05 12.88C149.5 12.42 149.97 11.98 150.46 11.58Q151.21 10.96 151.97 10.54C152.47 10.25 152.93 10.1 153.34 10.1C153.8 10.1 154.17 10.26 154.46 10.57C154.77 10.86 155.02 11.18 155.19 11.51C155.19 11.54 155.12 11.59 154.98 11.66C154.86 11.71 154.68 11.88 154.44 12.16C154.19 12.47 153.92 12.9 153.6 13.46C153.31 13.99 153.02 14.58 152.72 15.22C152.44 15.85 152.21 16.49 152.02 17.15Q151.73 18.14 151.73 18.94C151.73 19.37 151.78 19.65 151.89 19.77C152.01 19.89 152.17 19.95 152.38 19.95C152.57 19.95 152.77 19.91 152.98 19.83C153.19 19.74 153.35 19.7 153.47 19.7C153.54 19.73 153.6 19.81 153.63 19.93Q153.71 20.09 153.71 20.21C153.57 20.34 153.41 20.46 153.21 20.58C153.02 20.7 152.82 20.81 152.62 20.92C152.41 21.02 152.2 21.11 151.99 21.18C151.8 21.25 151.63 21.28 151.47 21.28C150.97 21.28 150.55 21.2 150.22 21.05C149.91 20.91 149.66 20.72 149.47 20.48C149.3 20.23 149.18 19.95 149.11 19.62C149.04 19.27 149 18.91 149 18.53C149 18.32 149.02 18.08 149.05 17.82C149.09 17.56 149.16 17.26 149.26 16.91C149.37 16.55 149.51 16.12 149.7 15.64C149.89 15.14 150.14 14.54 150.43 13.85C150.4 13.85 150.16 13.97 149.73 14.21C149.3 14.45 148.83 14.82 148.33 15.33C147.51 16.11 146.78 16.88 146.12 17.64C145.48 18.4 144.82 19.25 144.14 20.19C143.76 20.73 143.42 21.18 143.13 21.54C142.85 21.92 142.61 22.17 142.4 22.3C142.03 22.09 141.77 21.79 141.59 21.41C141.42 21.05 141.29 20.67 141.2 20.27Q141.2 19.77 141.33 19.02C141.44 18.52 141.57 17.96 141.72 17.36C141.9 16.73 142.1 16.08 142.35 15.41C142.59 14.73 142.86 14.05 143.15 13.38C143.81 11.85 144.41 10.66 144.95 9.79C145.5 8.92 145.85 8.45 145.99 8.38ZM24.28 20.48C24.36 19.97 24.51 19.31 24.72 18.5C24.94 17.67 25.2 16.79 25.5 15.87C25.79 14.94 26.11 14 26.44 13.07C26.76 12.13 27.09 11.29 27.4 10.54C27.62 10.01 27.82 9.59 28 9.29C28.17 8.98 28.36 8.72 28.57 8.51C28.81 8.55 29.06 8.61 29.32 8.7C29.58 8.78 29.83 8.89 30.08 9.01C30.32 9.13 30.53 9.26 30.73 9.4C30.92 9.52 31.06 9.64 31.17 9.76Q30.47 10.6 29.92 11.66C29.57 12.37 29.22 13.28 28.85 14.39C29.79 13.56 30.61 12.76 31.32 12C32.05 11.24 32.73 10.39 33.35 9.45C33.46 9.36 33.64 9.32 33.9 9.32C34.14 9.32 34.37 9.36 34.6 9.45C34.82 9.52 34.98 9.62 35.07 9.76C34.76 10.6 34.6 11.42 34.6 12.23C34.6 13 34.71 13.57 34.94 13.95C34.92 14.05 34.8 14.25 34.57 14.55C34.37 14.84 34.13 15.12 33.87 15.38C33.4 15.14 32.99 14.81 32.62 14.39C32.26 13.96 31.99 13.49 31.82 12.99C31 13.56 30.31 14.12 29.74 14.68C29.17 15.21 28.67 15.82 28.26 16.5C27.86 17.16 27.51 17.92 27.22 18.79C26.94 19.65 26.67 20.68 26.41 21.88C26.25 21.86 26.06 21.8 25.84 21.7C25.63 21.61 25.41 21.5 25.19 21.36C24.98 21.22 24.79 21.07 24.62 20.92C24.44 20.76 24.33 20.61 24.28 20.48ZM130.66 20.48C130.75 19.97 130.9 19.31 131.11 18.5C131.33 17.67 131.59 16.79 131.89 15.87C132.18 14.94 132.49 14 132.82 13.07C133.15 12.13 133.47 11.29 133.78 10.54C134.01 10.01 134.21 9.59 134.38 9.29C134.56 8.98 134.75 8.72 134.95 8.51C135.2 8.55 135.45 8.61 135.71 8.7C135.97 8.78 136.22 8.89 136.46 9.01C136.71 9.13 136.92 9.26 137.11 9.4C137.3 9.52 137.45 9.64 137.55 9.76Q136.85 10.6 136.31 11.66Q135.79 12.73 135.24 14.39Q136.64 13.14 137.71 12C138.44 11.24 139.11 10.39 139.74 9.45C139.84 9.36 140.02 9.32 140.28 9.32C140.53 9.32 140.76 9.36 140.99 9.45C141.21 9.52 141.37 9.62 141.45 9.76C141.14 10.6 140.99 11.42 140.99 12.23C140.99 13 141.1 13.57 141.32 13.95C141.31 14.05 141.19 14.25 140.96 14.55C140.75 14.84 140.52 15.12 140.26 15.38C139.79 15.14 139.37 14.81 139.01 14.39C138.65 13.96 138.38 13.49 138.2 12.99C137.39 13.56 136.7 14.12 136.12 14.68C135.55 15.21 135.06 15.82 134.64 16.5C134.24 17.16 133.9 17.92 133.6 18.79C133.33 19.65 133.06 20.68 132.8 21.88C132.64 21.86 132.45 21.8 132.22 21.7C132.02 21.61 131.8 21.5 131.57 21.36C131.37 21.22 131.17 21.07 131 20.92C130.83 20.76 130.72 20.61 130.66 20.48ZM125.51 20.42C125.18 20.15 124.96 19.8 124.84 19.38C124.73 18.97 124.68 18.61 124.68 18.32Q124.68 17.77 124.81 17.38C124.74 17.38 124.59 17.52 124.34 17.8C124.1 18.07 123.83 18.4 123.54 18.79C123.26 19.17 122.98 19.54 122.7 19.9C122.43 20.27 122.22 20.54 122.08 20.71Q121.74 21.07 121.43 21.28C121.24 21.42 121.08 21.5 120.96 21.52C120.69 21.5 120.39 21.44 120.08 21.33C119.78 21.25 119.5 21.12 119.22 20.94Q119.14 20.89 119.07 20.83Q118.77 20.61 118.52 20.32C118.33 20.08 118.2 19.8 118.13 19.49C118.13 19 118.14 18.6 118.15 18.29C118.19 17.98 118.25 17.64 118.34 17.28Q118.57 16.29 119.01 15.04C119.32 14.21 119.68 13.39 120.08 12.6C120.48 11.78 120.92 11.03 121.4 10.34C121.91 9.62 122.44 9.07 122.99 8.67C123.15 8.67 123.33 8.69 123.54 8.72C123.74 8.74 123.95 8.78 124.16 8.85C124.39 8.92 124.59 9.01 124.78 9.11C124.99 9.2 125.17 9.32 125.3 9.48Q125.07 9.74 124.11 11.22C123.48 12.21 122.78 13.63 122 15.48C121.92 15.67 121.81 15.95 121.69 16.32C121.57 16.68 121.45 17.06 121.33 17.46C121.21 17.86 121.1 18.25 121.01 18.63Q120.91 19.2 120.91 19.54Q120.91 19.75 120.96 19.85C121.01 19.92 121.06 19.97 121.09 20.01C121.35 19.9 121.68 19.62 122.08 19.15C122.48 18.68 123.03 17.96 123.74 16.99C123.92 16.75 124.12 16.47 124.34 16.16C124.59 15.85 124.83 15.52 125.07 15.17C125.31 14.81 125.54 14.43 125.75 14.05C125.97 13.67 126.15 13.29 126.29 12.91C126.36 12.7 126.45 12.46 126.55 12.18C126.67 11.89 126.81 11.58 126.97 11.27C127.14 10.96 127.33 10.65 127.54 10.34C127.77 10.01 128.03 9.7 128.32 9.42C128.55 9.42 128.79 9.45 129.05 9.5C129.31 9.56 129.55 9.62 129.78 9.71C130.02 9.78 130.23 9.87 130.4 9.97C130.57 10.06 130.7 10.15 130.79 10.26Q130.32 11.4 129.75 12.52Q129.18 13.64 128.68 14.73C128.36 15.44 128.08 16.15 127.85 16.86C127.63 17.57 127.51 18.27 127.51 18.94C127.51 19.31 127.54 19.63 127.59 19.9C127.66 20.16 127.73 20.39 127.8 20.58C127.87 20.75 127.93 20.9 127.98 21.02Q128.09 21.2 128.09 21.33C128.09 21.35 128.07 21.38 128.03 21.41C128.02 21.43 128 21.44 127.98 21.44C127.86 21.44 127.71 21.41 127.51 21.36C127.32 21.31 127.11 21.23 126.86 21.13C126.64 21.04 126.41 20.93 126.16 20.81C125.94 20.69 125.72 20.56 125.51 20.42ZM47.04 21.91C46.05 21.8 45.26 21.37 44.67 20.61C44.08 19.84 43.79 18.87 43.79 17.69C43.79 17 43.89 16.28 44.1 15.54C44.31 14.79 44.6 14.07 44.98 13.38C45.36 12.67 45.82 12 46.34 11.38C46.86 10.75 47.42 10.21 48.03 9.76C48.98 9.05 49.87 8.7 50.7 8.7C51.26 8.99 51.8 9.61 52.34 10.54L52.58 10.54Q52.68 10.52 52.81 10.52C53.73 10.52 54.19 11.33 54.19 12.96C54.19 14.05 54.01 15.09 53.64 16.08C53.29 17.05 52.8 17.94 52.16 18.73C51.54 19.53 50.78 20.21 49.9 20.76C49.03 21.3 48.08 21.68 47.04 21.91ZM110.03 21.91Q109.22 21.82 108.59 21.44Q108.06 21.12 107.67 20.61C107.08 19.84 106.78 18.87 106.78 17.69C106.78 17 106.89 16.28 107.09 15.54C107.3 14.79 107.6 14.07 107.98 13.38C108.36 12.67 108.81 12 109.33 11.38C109.85 10.75 110.41 10.21 111.02 9.76C111.97 9.05 112.87 8.7 113.7 8.7C114.25 8.99 114.8 9.61 115.34 10.54L115.57 10.54C115.64 10.53 115.72 10.52 115.8 10.52C116.72 10.52 117.18 11.33 117.18 12.96Q117.18 14.26 116.84 15.46L116.84 15.46Q116.75 15.77 116.64 16.08C116.29 17.05 115.8 17.94 115.15 18.73C114.53 19.53 113.78 20.21 112.89 20.76C112.03 21.3 111.07 21.68 110.03 21.91ZM23.7 10.23C23.63 11.31 23.44 12.23 23.13 13.01C22.81 13.78 22.36 14.45 21.77 15.04C21.2 15.61 20.5 16.13 19.67 16.6C18.84 17.07 17.86 17.52 16.76 17.95C16.76 18.06 16.75 18.17 16.73 18.29L16.73 18.63C16.73 18.85 16.75 19.09 16.78 19.33C16.82 19.57 16.88 19.8 16.96 20.01C17.05 20.21 17.17 20.39 17.33 20.53C17.48 20.65 17.68 20.71 17.93 20.71Q18.06 20.71 18.19 20.7L18.19 20.7Q18.75 20.65 19.3 20.4C19.75 20.19 20.18 19.94 20.58 19.64C20.99 19.33 21.37 19 21.72 18.66C22.09 18.29 22.41 17.96 22.68 17.67C22.86 17.82 23 17.97 23.13 18.11C22.35 19.15 21.49 20.02 20.55 20.71C19.63 21.39 18.76 21.82 17.93 22.01C16.73 21.87 15.79 21.44 15.12 20.71C14.46 19.96 14.13 19.07 14.13 18.03Q14.13 16.96 14.42 15.87Q14.71 14.81 15.2 13.84Q15.22 13.79 15.25 13.74C15.61 13.05 16.03 12.4 16.5 11.79Q17.22 10.88 18.03 10.21Q18.86 9.53 19.72 9.14C20.31 8.88 20.89 8.75 21.46 8.75C22.26 8.85 23 9.35 23.7 10.23ZM78.46 10.49C78.63 10.49 78.83 10.53 79.06 10.6C79.3 10.65 79.51 10.73 79.71 10.83C79.9 10.92 80.05 11.01 80.17 11.12C80.31 11.22 80.38 11.31 80.38 11.4C80.03 12.13 79.71 12.87 79.42 13.61C79.12 14.34 78.87 15.04 78.67 15.72C78.46 16.39 78.29 17.03 78.17 17.62C78.07 18.2 78.02 18.72 78.02 19.15C78.02 19.63 78.07 20.04 78.17 20.37C78.28 20.68 78.45 20.91 78.69 21.05C78.48 21.19 78.21 21.3 77.89 21.39C77.56 21.47 77.26 21.52 77 21.52C76.07 21.52 75.6 20.87 75.6 19.59C75.6 18.6 75.93 17.25 76.59 15.54C76.24 16.33 75.84 17.09 75.39 17.8C74.94 18.49 74.48 19.11 74.01 19.64C73.54 20.18 73.07 20.62 72.58 20.97C72.11 21.3 71.68 21.5 71.28 21.57C70.64 21.53 70.12 21.23 69.72 20.66C69.32 20.07 69.12 19.32 69.12 18.42Q69.12 16.96 69.75 15.35C70.16 14.28 70.69 13.28 71.33 12.36C71.99 11.44 72.7 10.68 73.47 10.08C74.23 9.45 74.96 9.12 75.68 9.09Q75.94 9.16 76.25 9.4C76.47 9.56 76.68 9.74 76.87 9.94C77.08 10.15 77.25 10.37 77.39 10.6C77.53 10.8 77.61 10.99 77.63 11.14C76.93 11.25 76.21 11.58 75.47 12.16C74.74 12.73 74.07 13.42 73.47 14.24C72.88 15.03 72.39 15.89 72.01 16.81C71.63 17.73 71.44 18.59 71.44 19.38C71.44 19.71 71.56 19.92 71.8 20.01C72.3 19.9 72.88 19.48 73.54 18.73Q74.53 17.59 75.94 15.22C76.11 14.91 76.3 14.56 76.51 14.18Q76.85 13.61 77.18 12.99C77.41 12.57 77.63 12.16 77.83 11.74Q78.17 11.09 78.46 10.49ZM164.79 10.49C164.96 10.49 165.16 10.53 165.38 10.6C165.63 10.65 165.84 10.73 166.03 10.83C166.22 10.92 166.38 11.01 166.5 11.12C166.64 11.22 166.71 11.31 166.71 11.4C166.36 12.13 166.04 12.87 165.75 13.61C165.45 14.34 165.2 15.04 164.99 15.72C164.79 16.39 164.62 17.03 164.5 17.62C164.4 18.2 164.34 18.72 164.34 19.15C164.34 19.63 164.4 20.04 164.5 20.37C164.6 20.68 164.78 20.91 165.02 21.05C164.81 21.19 164.54 21.3 164.21 21.39C163.88 21.47 163.59 21.52 163.33 21.52C162.39 21.52 161.92 20.87 161.92 19.59Q161.92 18.11 162.91 15.54C162.57 16.33 162.17 17.09 161.72 17.8C161.27 18.49 160.81 19.11 160.34 19.64C159.87 20.18 159.39 20.62 158.91 20.97C158.44 21.3 158.01 21.5 157.61 21.57C156.97 21.53 156.45 21.23 156.05 20.66C155.65 20.07 155.45 19.32 155.45 18.42C155.45 17.45 155.66 16.43 156.08 15.35C156.49 14.28 157.02 13.28 157.66 12.36C158.32 11.44 159.03 10.68 159.79 10.08C160.56 9.45 161.29 9.12 162 9.09C162.18 9.14 162.37 9.24 162.58 9.4C162.8 9.56 163.01 9.74 163.2 9.94C163.41 10.15 163.58 10.37 163.72 10.6C163.86 10.8 163.94 10.99 163.95 11.14C163.26 11.25 162.54 11.58 161.8 12.16C161.07 12.73 160.4 13.42 159.79 14.24C159.2 15.03 158.72 15.89 158.34 16.81C157.96 17.73 157.77 18.59 157.77 19.38C157.77 19.71 157.89 19.92 158.13 20.01C158.63 19.9 159.21 19.48 159.87 18.73Q160.86 17.59 162.26 15.22C162.44 14.91 162.63 14.56 162.84 14.18C163.06 13.8 163.29 13.4 163.51 12.99C163.74 12.57 163.95 12.16 164.16 11.74C164.39 11.31 164.6 10.89 164.79 10.49ZM48.36 13.72C48.07 14.11 47.79 14.55 47.53 15.02C47.27 15.48 47.05 15.96 46.86 16.45C46.66 16.91 46.52 17.37 46.41 17.82C46.31 18.26 46.26 18.65 46.26 18.99C46.26 19.41 46.33 19.81 46.47 20.19C46.6 20.57 46.76 20.79 46.93 20.84C47.71 20.67 48.42 20.35 49.07 19.88C49.72 19.39 50.29 18.79 50.76 18.08C51.24 17.37 51.61 16.57 51.87 15.67C52.15 14.76 52.29 13.8 52.29 12.78C52.29 12.33 52.26 11.97 52.21 11.71C52.16 11.45 52.07 11.23 51.95 11.04C51.19 11.26 50.5 11.63 49.9 12.13C49.31 12.63 48.8 13.16 48.36 13.72ZM111.36 13.72C111.06 14.11 110.79 14.55 110.53 15.02Q110.14 15.72 109.85 16.45C109.66 16.91 109.51 17.37 109.41 17.82C109.3 18.26 109.25 18.65 109.25 18.99C109.25 19.41 109.32 19.81 109.46 20.19C109.6 20.57 109.75 20.79 109.93 20.84C110.71 20.67 111.42 20.35 112.06 19.88C112.72 19.39 113.28 18.79 113.75 18.08C114.24 17.37 114.61 16.57 114.87 15.67C115.15 14.76 115.28 13.8 115.28 12.78C115.28 12.33 115.26 11.97 115.21 11.71C115.15 11.45 115.07 11.23 114.95 11.04C114.18 11.26 113.5 11.63 112.89 12.13C112.3 12.63 111.79 13.16 111.36 13.72ZM21.9 11.09C21.44 11.16 20.95 11.35 20.45 11.66C19.94 11.97 19.47 12.39 19.02 12.91C18.58 13.43 18.19 14.04 17.82 14.73C17.46 15.42 17.17 16.17 16.96 16.96Q19.04 15.93 20.42 14.42Q21.53 13.19 21.81 11.79Q21.88 11.44 21.9 11.09ZM35.37 22.5C35.79 22.33 36.18 22.08 36.54 21.75C36.92 21.42 37.25 21.05 37.53 20.63C37.81 20.21 38.02 19.77 38.18 19.31C38.35 18.84 38.44 18.38 38.44 17.93C38.09 17.98 37.71 18.14 37.3 18.42Q36.67 18.81 36.13 19.38C35.76 19.75 35.46 20.13 35.22 20.53C34.97 20.93 34.85 21.27 34.85 21.57C34.85 21.95 35.02 22.26 35.37 22.5Z" fill="#FFFFFF" fill-opacity="1.000000" fill-rule="evenodd"/>
</svg>
